<?xml version="1.0" encoding="UTF-8"?>
<!DOCTYPE svg PUBLIC "-//W3C//DTD SVG 1.1//EN" "http://www.w3.org/Graphics/SVG/1.1/DTD/svg11.dtd">
<!-- Creator: CorelDRAW (Versão de avaliação) -->
<svg xmlns="http://www.w3.org/2000/svg" xml:space="preserve" width="42.6347mm" height="41.0075mm" version="1.1" style="shape-rendering:geometricPrecision; text-rendering:geometricPrecision; image-rendering:optimizeQuality; fill-rule:evenodd; clip-rule:evenodd"
viewBox="0 0 726.18 698.47"
 xmlns:xlink="http://www.w3.org/1999/xlink"
 xmlns:xodm="http://www.corel.com/coreldraw/odm/2003">
 <defs>
  <style type="text/css">
   <![CDATA[
    .fil1 {fill:#727376}
    .fil2 {fill:#FE5B0B}
    .fil0 {fill:#FEFEFE;fill-rule:nonzero}
    .fil3 {fill:#FE5B0B;fill-rule:nonzero}
   ]]>
  </style>
 </defs>
 <g id="Camada_x0020_1">
  <metadata id="CorelCorpID_0Corel-Layer"/>
  <path class="fil0" d="M671.62 419.66c-30.7,159.07 -186.91,275.46 -346.94,256.97 -156.27,-12.84 -283.63,-152.21 -281.99,-307.8 -4.32,-168.43 138.66,-304.45 304.92,-303.8l-0.01 -64.83c-190.01,1.43 -357.83,155.64 -347.1,369.82 5.65,172.28 151.08,321.01 322.56,327.67 166.96,11.99 324.17,-113.58 348.57,-278.02z"/>
  <g id="_2320593321552">
   <g>
    <path class="fil1" d="M346.93 628.4l-7.96 0c-4.08,0 -7.41,-4.34 -7.41,-9.67l0 -157.87c0,-5.33 3.32,-9.67 7.41,-9.67l7.96 0c4.08,0 7.41,4.34 7.41,9.67l0 157.87c0,5.33 -3.32,9.67 -7.41,9.67z"/>
    <path class="fil1" d="M338.97 113.8l7.96 0c4.08,0 7.41,4.34 7.41,9.67l0 157.87c0,5.33 -3.32,9.67 -7.41,9.67l-7.96 0c-4.08,0 -7.41,-4.34 -7.41,-9.67l0 -157.87c0,-5.33 3.32,-9.67 7.41,-9.67z"/>
   </g>
   <g>
    <path class="fil1" d="M597.93 367.12l0 7.96c0,4.08 -4.34,7.41 -9.67,7.41l-157.87 0c-5.33,0 -9.67,-3.32 -9.67,-7.41l0 -7.96c0,-4.09 4.34,-7.41 9.67,-7.41l157.87 0c5.33,0 9.67,3.32 9.67,7.41z"/>
    <path class="fil1" d="M87.97 375.08l0 -7.96c0,-4.08 4.34,-7.41 9.67,-7.41l157.87 0c5.33,0 9.67,3.32 9.67,7.41l0 7.96c0,4.08 -4.34,7.41 -9.67,7.41l-157.87 0c-5.33,0 -9.67,-3.32 -9.67,-7.41z"/>
   </g>
  </g>
  <path class="fil2" d="M342.95 332.04c21.57,0 39.06,17.49 39.06,39.06 0,21.57 -17.49,39.06 -39.06,39.06 -21.57,0 -39.06,-17.49 -39.06,-39.06 0,-21.58 17.49,-39.06 39.06,-39.06zm0 16.79c12.3,0 22.27,9.97 22.27,22.27 0,12.3 -9.97,22.27 -22.27,22.27 -12.3,0 -22.27,-9.97 -22.27,-22.27 0,-12.3 9.97,-22.27 22.27,-22.27z"/>
  <path class="fil3" d="M342.95 65.02c127.47,1.48 244.71,94.46 269.82,219.23l-23.54 6.24c-5.39,1.43 -6.9,8.45 -2.49,11.59l81.53 58.1c3.2,2.28 7.8,1.06 9.65,-2.56l47.5 -92.29c2.57,-4.99 -1.77,-10.46 -7.16,-9.03l-23.69 6.28c-21.49,-82.19 -71.54,-155.66 -141.53,-202.5 -63.8,-43.83 -139.94,-62.19 -210.1,-59.89l0.01 64.83z"/>
 </g>
</svg>
