<?xml version="1.0" encoding="UTF-8"?>
<!DOCTYPE svg PUBLIC "-//W3C//DTD SVG 1.1//EN" "http://www.w3.org/Graphics/SVG/1.1/DTD/svg11.dtd">
<!-- Creator: CorelDRAW (Versão de avaliação) -->
<svg xmlns="http://www.w3.org/2000/svg" xml:space="preserve" width="239.104mm" height="41.0075mm" version="1.1" style="shape-rendering:geometricPrecision; text-rendering:geometricPrecision; image-rendering:optimizeQuality; fill-rule:evenodd; clip-rule:evenodd"
viewBox="0 0 22839.87 3917.15"
 xmlns:xlink="http://www.w3.org/1999/xlink"
 xmlns:xodm="http://www.corel.com/coreldraw/odm/2003">
 <defs>
  <style type="text/css">
   <![CDATA[
    .fil6 {fill:#727376}
    .fil2 {fill:#04162B}
    .fil4 {fill:#FE5B0B}
    .fil0 {fill:#03152A;fill-rule:nonzero}
    .fil3 {fill:#04162B;fill-rule:nonzero}
    .fil1 {fill:#FE5B0B;fill-rule:nonzero}
    .fil5 {fill:#FE5B0B;fill-rule:nonzero}
   ]]>
  </style>
 </defs>
 <g id="Camada_x0020_1">
  <metadata id="CorelCorpID_0Corel-Layer"/>
  <path class="fil0" d="M6353.78 2969.17l-1108.87 0c-65.39,0 -117.15,-54.5 -117.15,-119.88l0 -751.96c0,-65.39 51.76,-119.87 117.15,-119.87l1108.87 0 0 -457.72 -1335 0c-228.85,0 -414.11,196.17 -414.11,414.12l0 1078.89c0,228.85 196.16,414.12 414.11,414.12l1335 0 0 -457.71zm305.14 -1100.69l0 419.56 1035.3 0c51.76,0 87.18,35.42 87.18,87.18l0 84.46 -844.58 0c-204.33,0 -373.26,163.47 -373.26,370.52l0 223.41c0,204.34 166.19,373.26 373.26,373.26l1348.61 0 0 -1185.14c0,-207.06 -166.19,-373.26 -373.25,-373.26l-1253.26 0zm490.4 1157.9c-46.32,0 -81.74,-29.97 -81.74,-81.73l0 -24.52c0,-51.76 35.42,-81.74 81.74,-81.74l632.07 0 0 187.99 -632.07 0zm2936.98 -1157.9l-569.41 0 0 -348.73 -504.04 0 0 348.73 -563.96 0 0 441.36 563.96 0 0 1117.03 504.04 0 0 -1117.03 569.41 0 0 -441.36zm147.11 1185.14c0,204.34 166.19,373.26 373.26,373.26l1310.47 0 0 -419.56 -1073.44 0c-62.66,0 -106.26,-43.6 -106.26,-106.26l0 -81.73 874.56 0c207.06,0 373.26,-166.2 373.26,-373.26l0 -204.33c0,-204.34 -166.2,-373.26 -373.26,-373.26l-1005.33 0c-207.06,0 -373.26,166.19 -373.26,373.26l0 811.89zm1168.8 -784.64c51.76,0 79.02,27.24 79.02,79.01l0 32.7c0,51.76 -27.25,79.01 -79.02,79.01l-664.77 0 0 -111.7c0,-51.76 27.25,-79.01 79.02,-79.01l585.76 0zm2438.41 719.26l-988.99 0c-57.22,0 -106.26,-43.59 -106.26,-106.25l0 -465.89c0,-62.66 49.04,-106.25 106.26,-106.25l988.99 0 0 -441.36 -1226.02 0c-209.79,0 -373.26,174.37 -373.26,373.26l0 811.89c0,207.06 174.37,373.26 373.26,373.26l1226.02 0 0 -438.64zm716.54 -1119.76l0 -528.55 -504.03 0 0 2086.94 504.03 0 0 -1117.03 623.9 0c62.66,0 106.26,43.59 106.26,106.25l0 1010.78 504.03 0 0 -1185.14c0,-209.79 -174.37,-373.26 -373.26,-373.26l-860.93 0z"/>
  <path class="fil1" d="M16535.39 1584.09l0 442.27 1205.7 0c55.29,0 94.78,36.85 94.78,97.4l0 73.71c0,55.29 -39.49,94.77 -94.78,94.77l-979.3 0 0 426.47 979.3 0c55.29,0 94.78,39.49 94.78,94.78l0 73.71c0,60.55 -39.49,97.4 -94.78,97.4l-1205.7 0 0 442.27 1403.14 0c223.76,0 402.77,-189.55 402.77,-400.15l0 -192.17c0,-136.89 -71.08,-258 -176.37,-329.08 107.93,-76.34 176.37,-197.44 176.37,-331.69l0 -186.91c0,-223.77 -189.54,-402.78 -402.77,-402.78l-1403.14 0zm3909.32 1081.98c0,-221.14 -181.65,-400.15 -423.84,-400.15l-892.43 0 0 -126.36c0,-63.18 50.03,-113.19 113.2,-113.19l1097.77 0 0 -442.27 -1316.27 0c-221.14,0 -400.15,189.55 -400.15,402.78l0 1039.85c0,221.14 179.02,400.15 400.15,400.15l1018.79 0c221.14,0 402.78,-189.55 402.78,-400.15l0 -360.66zm-505.45 221.13c0,60.55 -39.49,97.4 -94.77,97.4l-618.65 0c-60.54,0 -97.4,-36.85 -97.4,-97.4l0 -179.01 716.06 0c55.28,0 94.77,36.85 94.77,97.4l0 81.61zm2590.43 -900.32c0,-223.77 -179.02,-402.78 -400.15,-402.78l-1021.43 0c-221.14,7.9 -400.15,186.91 -400.15,402.78l0 1039.85c7.9,221.14 184.28,400.15 400.15,400.15l1021.43 0c221.13,-7.9 400.15,-184.28 400.15,-400.15l0 -1039.85zm-505.45 884.53c0,63.18 -52.65,113.19 -113.2,113.19l-581.79 0c-63.18,0 -115.83,-50.02 -115.83,-113.19l0 -731.85c0,-63.18 52.65,-113.19 115.83,-113.19l581.79 0c60.55,0 113.2,50.02 113.2,113.19l0 731.85z"/>
  <path class="fil2" d="M22660.07 1245.95c99.31,0 179.8,80.5 179.8,179.79 0,99.31 -80.5,179.8 -179.8,179.8 -99.31,0 -179.8,-80.5 -179.8,-179.8 0,-99.3 80.5,-179.79 179.8,-179.79zm0 80.8c54.67,0 98.99,44.32 98.99,98.99 0,54.68 -44.32,98.99 -98.99,98.99 -54.68,0 -98.99,-44.31 -98.99,-98.99 0,-54.67 44.31,-98.99 98.99,-98.99z"/>
  <path class="fil3" d="M3766.57 2353.52c-172.2,892.11 -1048.2,1544.81 -1945.72,1441.14 -876.4,-72.03 -1590.68,-853.63 -1581.48,-1726.19 -24.24,-944.58 777.63,-1707.39 1710.03,-1703.8l-0.04 -363.59c-1065.61,8.01 -2006.79,872.86 -1946.62,2074.02 31.68,966.19 847.31,1800.29 1808.96,1837.62 936.33,67.22 1818.03,-637.01 1954.87,-1559.2z"/>
  <path class="fil4" d="M1923.33 1862.13c120.99,0 219.07,98.08 219.07,219.07 0,120.99 -98.08,219.07 -219.07,219.07 -120.99,0 -219.07,-98.08 -219.07,-219.07 0,-120.99 98.08,-219.07 219.07,-219.07zm0 94.19c68.98,0 124.89,55.91 124.89,124.89 0,68.98 -55.91,124.89 -124.89,124.89 -68.98,0 -124.89,-55.91 -124.89,-124.89 0,-68.98 55.91,-124.89 124.89,-124.89z"/>
  <path class="fil5" d="M1923.33 364.67c714.86,8.27 1372.39,529.76 1513.22,1229.52l-132.02 34.98c-30.24,8.01 -38.72,47.39 -13.98,65.01l457.25 325.82c17.93,12.77 43.72,5.94 54.13,-14.35l266.4 -517.57c14.41,-28 -9.92,-58.68 -40.16,-50.67l-132.83 35.19c-120.53,-460.92 -401.22,-872.94 -793.75,-1135.66 -357.82,-245.82 -784.79,-348.77 -1178.3,-335.87l0.05 363.59z"/>
  <g id="_2320592732688">
   <g>
    <path class="fil6" d="M1945.67 3524.2l-44.67 0c-22.91,0 -41.54,-24.33 -41.54,-54.25l0 -885.39c0,-29.91 18.64,-54.24 41.54,-54.24l44.67 0c22.91,0 41.55,24.33 41.55,54.24l0 885.39c0,29.92 -18.65,54.25 -41.55,54.25z"/>
    <path class="fil6" d="M1901 638.2l44.67 0c22.91,0 41.55,24.34 41.55,54.25l0 885.39c0,29.91 -18.65,54.25 -41.55,54.25l-44.67 0c-22.91,0 -41.54,-24.34 -41.54,-54.25l0 -885.39c0,-29.91 18.64,-54.25 41.54,-54.25z"/>
   </g>
   <g>
    <path class="fil6" d="M3353.3 2058.87l0 44.67c0,22.91 -24.33,41.54 -54.25,41.54l-885.39 0c-29.91,0 -54.24,-18.64 -54.24,-41.54l0 -44.67c0,-22.91 24.33,-41.55 54.24,-41.55l885.39 0c29.92,0 54.25,18.65 54.25,41.55z"/>
    <path class="fil6" d="M493.37 2103.54l0 -44.67c0,-22.92 24.33,-41.55 54.25,-41.55l885.39 0c29.91,0 54.24,18.64 54.24,41.55l0 44.67c0,22.91 -24.33,41.54 -54.24,41.54l-885.39 0c-29.92,0 -54.25,-18.64 -54.25,-41.54z"/>
   </g>
  </g>
 </g>
</svg>
