<svg width="800" height="500" viewBox="0 0 800 500" xmlns="http://www.w3.org/2000/svg" font-family="ui-sans-serif,system-ui,sans-serif">
  <!-- bg -->
  <rect width="800" height="500" fill="#05090f"/>

  <!-- sidebar -->
  <rect width="52" height="500" fill="#0a1019"/>
  <circle cx="26" cy="28" r="8" fill="#1c7898"/>
  <rect x="14" y="60" width="24" height="2" rx="1" fill="#182030"/>
  <rect x="14" y="72" width="24" height="2" rx="1" fill="#182030"/>
  <rect x="14" y="84" width="24" height="2" rx="1" fill="#182030"/>
  <rect x="10" y="100" width="32" height="28" rx="4" fill="#1c7898" opacity="0.15"/>
  <rect x="18" y="111" width="16" height="2" rx="1" fill="#1c7898" opacity="0.7"/>
  <rect x="14" y="140" width="24" height="2" rx="1" fill="#182030"/>
  <rect x="14" y="152" width="24" height="2" rx="1" fill="#182030"/>
  <rect x="14" y="164" width="24" height="2" rx="1" fill="#182030"/>

  <!-- header -->
  <rect x="52" width="748" height="44" fill="#0a1019"/>
  <text x="68" y="28" fill="#eaf4f8" font-size="13" font-weight="600" letter-spacing="-0.3">CATECH MES</text>
  <text x="162" y="28" fill="#415a6b" font-size="11" font-family="ui-monospace,monospace">Rastreabilidade de Produção</text>
  <rect x="590" y="16" width="60" height="12" rx="2" fill="#182030"/>
  <rect x="660" y="16" width="44" height="12" rx="2" fill="#182030"/>
  <circle cx="736" cy="22" r="4" fill="#22c55e"/>
  <text x="744" y="26" fill="#22c55e" font-size="9" font-family="ui-monospace,monospace">AO VIVO</text>

  <!-- divider -->
  <line x1="52" y1="44" x2="800" y2="44" stroke="#182030" stroke-width="1"/>

  <!-- tab bar -->
  <rect x="52" y="44" width="748" height="32" fill="#0a1019"/>
  <text x="72" y="65" fill="#1c7898" font-size="11" font-weight="600">Dashboard</text>
  <rect x="62" y="74" width="64" height="2" rx="1" fill="#1c7898"/>
  <text x="142" y="65" fill="#415a6b" font-size="11">Ordens</text>
  <text x="196" y="65" fill="#415a6b" font-size="11">Máquinas</text>
  <text x="258" y="65" fill="#415a6b" font-size="11">Alertas</text>
  <text x="310" y="65" fill="#415a6b" font-size="11">Relatórios</text>

  <!-- KPI cards row -->
  <!-- OEE -->
  <rect x="68" y="90" width="154" height="76" rx="6" fill="#0a1019" stroke="#182030" stroke-width="1"/>
  <text x="82" y="110" fill="#415a6b" font-size="9" font-family="ui-monospace,monospace" letter-spacing="0.08em">OEE GERAL</text>
  <text x="82" y="140" fill="#eaf4f8" font-size="28" font-weight="700" letter-spacing="-1">87,4%</text>
  <text x="82" y="158" fill="#22c55e" font-size="10">↑ +2,1 pts vs ontem</text>

  <!-- Produção -->
  <rect x="234" y="90" width="154" height="76" rx="6" fill="#0a1019" stroke="#182030" stroke-width="1"/>
  <text x="248" y="110" fill="#415a6b" font-size="9" font-family="ui-monospace,monospace" letter-spacing="0.08em">PRODUÇÃO</text>
  <text x="248" y="140" fill="#eaf4f8" font-size="28" font-weight="700" letter-spacing="-1">1.847</text>
  <text x="248" y="158" fill="#415a6b" font-size="10">peças · meta 2.000</text>

  <!-- Disponibilidade -->
  <rect x="400" y="90" width="154" height="76" rx="6" fill="#0a1019" stroke="#182030" stroke-width="1"/>
  <text x="414" y="110" fill="#415a6b" font-size="9" font-family="ui-monospace,monospace" letter-spacing="0.08em">DISPONIBILIDADE</text>
  <text x="414" y="140" fill="#eaf4f8" font-size="28" font-weight="700" letter-spacing="-1">92,1%</text>
  <text x="414" y="158" fill="#f59e0b" font-size="10">↓ 1 parada não planejada</text>

  <!-- Performance -->
  <rect x="566" y="90" width="154" height="76" rx="6" fill="#0a1019" stroke="#1c7898" stroke-width="1"/>
  <text x="580" y="110" fill="#415a6b" font-size="9" font-family="ui-monospace,monospace" letter-spacing="0.08em">PERFORMANCE</text>
  <text x="580" y="140" fill="#1c7898" font-size="28" font-weight="700" letter-spacing="-1">94,8%</text>
  <text x="580" y="158" fill="#415a6b" font-size="10">velocidade nominal</text>

  <!-- Chart area -->
  <rect x="68" y="182" width="462" height="192" rx="6" fill="#0a1019" stroke="#182030" stroke-width="1"/>
  <text x="84" y="202" fill="#415a6b" font-size="9" font-family="ui-monospace,monospace" letter-spacing="0.08em">OEE — ÚLTIMAS 8 HORAS</text>

  <!-- chart grid lines -->
  <line x1="84" y1="220" x2="514" y2="220" stroke="#182030" stroke-width="1"/>
  <line x1="84" y1="245" x2="514" y2="245" stroke="#182030" stroke-width="1"/>
  <line x1="84" y1="270" x2="514" y2="270" stroke="#182030" stroke-width="1"/>
  <line x1="84" y1="295" x2="514" y2="295" stroke="#182030" stroke-width="1"/>
  <line x1="84" y1="320" x2="514" y2="320" stroke="#182030" stroke-width="1"/>
  <line x1="84" y1="345" x2="514" y2="345" stroke="#182030" stroke-width="1"/>

  <!-- y axis labels -->
  <text x="74" y="223" fill="#415a6b" font-size="8" text-anchor="end" font-family="ui-monospace,monospace">100</text>
  <text x="74" y="248" fill="#415a6b" font-size="8" text-anchor="end" font-family="ui-monospace,monospace">90</text>
  <text x="74" y="273" fill="#415a6b" font-size="8" text-anchor="end" font-family="ui-monospace,monospace">80</text>
  <text x="74" y="298" fill="#415a6b" font-size="8" text-anchor="end" font-family="ui-monospace,monospace">70</text>
  <text x="74" y="323" fill="#415a6b" font-size="8" text-anchor="end" font-family="ui-monospace,monospace">60</text>

  <!-- OEE line chart — area fill -->
  <defs>
    <linearGradient id="oeeGrad" x1="0" y1="0" x2="0" y2="1">
      <stop offset="0%" stop-color="#1c7898" stop-opacity="0.25"/>
      <stop offset="100%" stop-color="#1c7898" stop-opacity="0"/>
    </linearGradient>
  </defs>
  <path d="M84,260 L138,247 L192,252 L246,232 L300,238 L354,228 L408,235 L462,237 L514,232 L514,345 L84,345 Z" fill="url(#oeeGrad)"/>
  <polyline points="84,260 138,247 192,252 246,232 300,238 354,228 408,235 462,237 514,232" stroke="#1c7898" stroke-width="2" fill="none" stroke-linejoin="round" stroke-linecap="round"/>

  <!-- data point dots -->
  <circle cx="84" cy="260" r="3" fill="#1c7898"/>
  <circle cx="138" cy="247" r="3" fill="#1c7898"/>
  <circle cx="192" cy="252" r="3" fill="#1c7898"/>
  <circle cx="246" cy="232" r="3" fill="#1c7898"/>
  <circle cx="300" cy="238" r="3" fill="#1c7898"/>
  <circle cx="354" cy="228" r="3" fill="#1c7898"/>
  <circle cx="408" cy="235" r="3" fill="#1c7898"/>
  <circle cx="462" cy="237" r="3" fill="#1c7898"/>
  <circle cx="514" cy="232" r="4" fill="#3bb5d0"/>

  <!-- x axis labels -->
  <text x="84" y="360" fill="#415a6b" font-size="8" text-anchor="middle" font-family="ui-monospace,monospace">06:00</text>
  <text x="138" y="360" fill="#415a6b" font-size="8" text-anchor="middle" font-family="ui-monospace,monospace">07:00</text>
  <text x="192" y="360" fill="#415a6b" font-size="8" text-anchor="middle" font-family="ui-monospace,monospace">08:00</text>
  <text x="246" y="360" fill="#415a6b" font-size="8" text-anchor="middle" font-family="ui-monospace,monospace">09:00</text>
  <text x="300" y="360" fill="#415a6b" font-size="8" text-anchor="middle" font-family="ui-monospace,monospace">10:00</text>
  <text x="354" y="360" fill="#415a6b" font-size="8" text-anchor="middle" font-family="ui-monospace,monospace">11:00</text>
  <text x="408" y="360" fill="#415a6b" font-size="8" text-anchor="middle" font-family="ui-monospace,monospace">12:00</text>
  <text x="462" y="360" fill="#415a6b" font-size="8" text-anchor="middle" font-family="ui-monospace,monospace">13:00</text>
  <text x="514" y="360" fill="#3bb5d0" font-size="8" text-anchor="middle" font-family="ui-monospace,monospace">AGORA</text>

  <!-- active tooltip -->
  <rect x="484" y="200" width="88" height="44" rx="4" fill="#182030" stroke="#1c7898" stroke-width="1"/>
  <text x="494" y="216" fill="#415a6b" font-size="8" font-family="ui-monospace,monospace">13:42</text>
  <text x="494" y="232" fill="#eaf4f8" font-size="12" font-weight="700">87,4%</text>
  <text x="494" y="244" fill="#22c55e" font-size="8">↑ tendência estável</text>

  <!-- right panel — eventos recentes -->
  <rect x="546" y="182" width="234" height="192" rx="6" fill="#0a1019" stroke="#182030" stroke-width="1"/>
  <text x="562" y="202" fill="#415a6b" font-size="9" font-family="ui-monospace,monospace" letter-spacing="0.08em">EVENTOS RECENTES</text>

  <!-- event rows -->
  <line x1="562" y1="212" x2="764" y2="212" stroke="#182030" stroke-width="1"/>

  <circle cx="570" cy="226" r="3" fill="#22c55e"/>
  <text x="582" y="230" fill="#eaf4f8" font-size="10">Máquina 01 — OPERANDO</text>
  <text x="582" y="242" fill="#415a6b" font-size="9" font-family="ui-monospace,monospace">13:38 · 847 peças</text>
  <line x1="562" y1="250" x2="764" y2="250" stroke="#182030" stroke-width="1"/>

  <circle cx="570" cy="264" r="3" fill="#f59e0b"/>
  <text x="582" y="268" fill="#eaf4f8" font-size="10">Máquina 03 — SETUP</text>
  <text x="582" y="280" fill="#415a6b" font-size="9" font-family="ui-monospace,monospace">13:21 · troca de ferramenta</text>
  <line x1="562" y1="288" x2="764" y2="288" stroke="#182030" stroke-width="1"/>

  <circle cx="570" cy="302" r="3" fill="#22c55e"/>
  <text x="582" y="306" fill="#eaf4f8" font-size="10">ERP sincronizado</text>
  <text x="582" y="318" fill="#415a6b" font-size="9" font-family="ui-monospace,monospace">13:00 · 1.603 → TOTVS</text>
  <line x1="562" y1="326" x2="764" y2="326" stroke="#182030" stroke-width="1"/>

  <circle cx="570" cy="340" r="3" fill="#ef4444"/>
  <text x="582" y="344" fill="#eaf4f8" font-size="10">Máquina 02 — PARADA</text>
  <text x="582" y="356" fill="#415a6b" font-size="9" font-family="ui-monospace,monospace">11:47 · sensor de posição</text>

  <!-- bottom bar -->
  <rect x="52" y="390" width="748" height="110" fill="#0a1019"/>
  <line x1="52" y1="390" x2="800" y2="390" stroke="#182030" stroke-width="1"/>
  <text x="68" y="410" fill="#415a6b" font-size="9" font-family="ui-monospace,monospace" letter-spacing="0.08em">MÁQUINAS CONECTADAS</text>

  <!-- machine status pills -->
  <rect x="68" y="420" width="96" height="28" rx="4" fill="#182030"/>
  <circle cx="82" cy="434" r="4" fill="#22c55e"/>
  <text x="92" y="438" fill="#eaf4f8" font-size="11">Máquina 01</text>
  <text x="92" y="448" fill="#22c55e" font-size="8" font-family="ui-monospace,monospace">OPERANDO</text>

  <rect x="174" y="420" width="96" height="28" rx="4" fill="#182030"/>
  <circle cx="188" cy="434" r="4" fill="#ef4444"/>
  <text x="198" y="438" fill="#eaf4f8" font-size="11">Máquina 02</text>
  <text x="198" y="448" fill="#ef4444" font-size="8" font-family="ui-monospace,monospace">PARADA</text>

  <rect x="280" y="420" width="96" height="28" rx="4" fill="#182030"/>
  <circle cx="294" cy="434" r="4" fill="#f59e0b"/>
  <text x="304" y="438" fill="#eaf4f8" font-size="11">Máquina 03</text>
  <text x="304" y="448" fill="#f59e0b" font-size="8" font-family="ui-monospace,monospace">SETUP</text>

  <rect x="386" y="420" width="96" height="28" rx="4" fill="#182030"/>
  <circle cx="400" cy="434" r="4" fill="#22c55e"/>
  <text x="410" y="438" fill="#eaf4f8" font-size="11">Máquina 04</text>
  <text x="410" y="448" fill="#22c55e" font-size="8" font-family="ui-monospace,monospace">OPERANDO</text>

  <rect x="492" y="420" width="96" height="28" rx="4" fill="#182030"/>
  <circle cx="506" cy="434" r="4" fill="#22c55e"/>
  <text x="516" y="438" fill="#eaf4f8" font-size="11">Máquina 05</text>
  <text x="516" y="448" fill="#22c55e" font-size="8" font-family="ui-monospace,monospace">OPERANDO</text>

  <text x="68" y="490" fill="#182030" font-size="9" font-family="ui-monospace,monospace">CATECH MES v2.1 · Turno A · 13:42:07 · 5 de 5 máquinas online</text>
</svg>
